<?xml version="1.0" standalone="no"?>
<!DOCTYPE svg PUBLIC "-//W3C//DTD SVG 20010904//EN"
 "http://www.w3.org/TR/2001/REC-SVG-20010904/DTD/svg10.dtd">
<svg version="1.0" xmlns="http://www.w3.org/2000/svg"
 width="758.000000pt" height="329.000000pt" viewBox="0 0 758.000000 329.000000"
 preserveAspectRatio="xMidYMid meet">

<g transform="translate(0.000000,329.000000) scale(0.100000,-0.100000)"
fill="#000000" stroke="none">
<path d="M3965 3219 c-196 -21 -438 -114 -553 -213 -122 -105 -208 -244 -237
-381 -17 -83 -19 -242 -4 -317 35 -175 134 -330 293 -460 l70 -58 326 0 325 1
-40 23 c-138 83 -316 198 -369 241 -288 230 -380 540 -246 821 43 88 112 165
187 210 66 38 182 64 289 64 238 0 401 -84 531 -272 88 -128 134 -231 199
-445 2 -7 12 -13 23 -13 10 0 21 6 23 13 9 24 -29 613 -41 635 -48 90 -505
179 -776 151z"/>
<path d="M2774 1821 c-37 -16 -64 -60 -64 -106 0 -53 26 -93 135 -205 129
-133 162 -198 131 -258 -21 -41 -67 -57 -161 -57 -105 1 -150 23 -150 76 0 35
11 44 141 126 18 11 18 12 -3 12 -28 1 -141 -77 -162 -112 -14 -25 -14 -30 -1
-55 24 -43 82 -66 170 -66 91 0 141 16 175 55 54 65 26 135 -117 287 -141 148
-164 201 -115 258 46 53 178 41 310 -28 166 -88 150 -188 -30 -188 -75 0 -105
-19 -35 -22 113 -5 179 14 203 58 43 82 -159 221 -336 230 -38 2 -80 0 -91 -5z"/>
<path d="M6077 1634 c-2 -3 -17 -6 -33 -8 -40 -6 -84 -17 -84 -23 0 -2 5 -13
11 -24 8 -16 7 -25 -7 -40 -15 -17 -15 -19 0 -25 16 -6 22 -44 9 -57 -3 -4 -7
-33 -8 -65 -1 -31 -3 -60 -3 -64 -1 -3 -41 -7 -89 -8 -49 0 -106 -2 -128 -3
-38 -2 -40 0 -43 28 -5 39 -17 52 -36 36 -11 -10 -13 -18 -6 -31 16 -30 -8
-37 -132 -42 -125 -6 -142 -1 -132 39 3 11 1 24 -5 27 -15 10 -14 46 2 46 6 0
4 5 -5 11 -10 5 -18 19 -18 29 0 10 8 24 18 29 16 10 15 12 -6 29 -22 17 -23
20 -7 35 23 23 28 21 23 -8 -4 -19 -1 -25 13 -25 11 0 16 -5 13 -14 -4 -10 2
-12 20 -9 43 9 73 -5 138 -63 56 -50 54 -48 -10 14 -46 45 -78 69 -88 65 -16
-6 -46 15 -39 27 3 5 1 11 -5 15 -5 3 -10 1 -10 -5 0 -6 -5 -8 -10 -5 -6 4 -8
10 -5 15 7 11 -80 44 -99 37 -8 -3 -29 -2 -45 3 -28 8 -32 6 -37 -17 -8 -30
30 -118 46 -108 6 4 10 3 9 -2 -1 -4 1 -15 4 -23 3 -8 13 -37 22 -65 16 -49
16 -50 -7 -69 -41 -34 -163 -86 -223 -96 -97 -16 -195 9 -195 50 0 15 7 20 25
20 33 0 86 22 103 43 21 25 6 57 -26 57 -33 0 -59 -17 -129 -82 -116 -108
-199 -114 -278 -20 -32 39 -51 40 -99 7 -50 -34 -58 -32 -50 12 l7 37 -29 -19
c-16 -10 -46 -31 -67 -46 -54 -39 -130 -63 -174 -54 -41 7 -79 44 -88 86 -4
16 -10 29 -15 29 -4 0 -20 -21 -35 -47 -51 -88 -75 -105 -75 -51 0 39 38 90
84 112 40 19 50 42 14 30 -13 -3 -27 -10 -33 -14 -71 -55 -153 -73 -221 -48
-29 10 -36 9 -53 -6 -22 -20 -41 -14 -41 14 0 36 -20 31 -36 -10 -18 -46 -66
-90 -96 -90 -19 0 -20 4 -15 61 l7 60 -51 -44 c-64 -56 -150 -99 -210 -105
-39 -4 -51 0 -69 18 -19 19 -21 29 -16 71 4 27 4 49 1 49 -4 0 -33 -28 -66
-62 -45 -48 -61 -60 -70 -51 -9 9 -8 22 4 55 19 49 20 58 9 58 -13 0 -42 -68
-42 -100 0 -36 31 -49 63 -26 12 9 32 23 44 32 21 15 22 14 37 -15 21 -39 44
-51 98 -51 44 0 147 42 195 80 35 27 43 25 43 -10 0 -42 30 -56 75 -34 20 9
42 26 50 37 22 32 30 12 9 -22 -90 -141 -107 -175 -112 -220 -3 -36 0 -50 13
-61 15 -13 20 -11 41 13 23 27 66 147 79 222 4 24 20 56 40 80 l33 39 52 -13
c29 -7 66 -10 86 -6 36 6 36 6 29 -24 -8 -36 9 -71 33 -71 10 0 35 18 56 39
l39 40 37 -30 c66 -53 136 -49 244 16 32 19 61 35 63 35 5 0 -1 -32 -13 -72
-9 -29 16 -21 53 17 19 19 48 42 65 51 l32 16 35 -40 c63 -72 115 -79 217 -28
38 19 69 34 69 33 3 -20 31 -46 66 -59 90 -35 195 -18 328 53 67 36 75 38 91
24 13 -12 15 -25 11 -58 -8 -56 0 -109 19 -116 8 -3 15 -12 15 -20 0 -20 81
-61 121 -61 42 0 97 21 72 27 -10 3 -18 9 -18 14 0 6 -9 7 -20 4 -11 -4 -20
-2 -20 4 0 6 -13 11 -30 11 -16 0 -33 6 -37 13 -4 8 -16 16 -25 20 -10 3 -18
16 -18 27 0 11 -6 20 -14 20 -8 0 -18 5 -22 12 -4 7 -3 8 4 4 7 -4 12 -1 12 7
0 8 7 20 15 27 13 11 13 15 3 21 -28 18 15 34 113 44 98 10 102 10 125 -12 13
-12 23 -30 22 -40 -4 -45 3 -93 13 -93 8 0 10 20 7 60 -2 33 -1 60 3 60 4 0
10 9 14 20 6 18 15 20 108 19 107 0 143 -10 133 -36 -9 -22 14 -49 25 -31 7
10 9 8 9 -5 0 -9 -9 -25 -19 -34 -11 -9 -17 -22 -14 -30 4 -9 -3 -16 -16 -20
-11 -3 -21 -11 -21 -18 0 -17 -28 -27 -51 -20 -13 5 -19 1 -19 -10 0 -12 -6
-15 -20 -10 -15 5 -20 2 -20 -10 0 -12 -5 -15 -17 -10 -12 4 -15 3 -8 -4 23
-22 134 -23 120 -1 -3 4 3 6 13 3 11 -2 32 6 50 22 38 32 57 108 42 170 -5 21
-5 44 -1 50 4 5 14 33 20 60 7 28 19 67 27 88 8 21 11 43 8 49 -4 6 -3 8 3 5
13 -8 43 56 43 92 0 26 -20 47 -33 35z m3 -24 c0 -5 -4 -10 -10 -10 -5 0 -10
5 -10 10 0 6 5 10 10 10 6 0 10 -4 10 -10z m-27 -7 c3 -5 0 -19 -6 -33 -5 -14
-9 -32 -8 -40 2 -21 -38 -23 -46 -3 -3 8 0 19 8 24 11 7 11 9 1 9 -8 0 -10 5
-5 13 4 6 8 15 9 20 1 4 2 9 3 12 2 8 39 6 44 -2z m-729 -23 c12 0 16 -5 12
-15 -3 -9 0 -15 10 -15 9 0 12 -5 8 -11 -4 -7 -22 -9 -45 -6 -43 6 -48 1 -21
-19 11 -9 12 -13 4 -14 -21 0 -39 23 -34 42 5 21 13 23 30 6 13 -13 15 -8 6
16 -3 8 -12 12 -20 9 -8 -3 -14 0 -14 7 0 8 8 10 23 6 12 -3 30 -6 41 -6z
m760 -5 c8 -22 -4 -45 -23 -45 -13 1 -13 3 4 16 14 11 16 18 8 21 -15 5 -18
23 -4 23 5 0 11 -7 15 -15z m-724 -69 c0 -7 -11 -16 -25 -18 -19 -4 -25 -1
-25 13 0 14 7 19 25 19 15 0 25 -6 25 -14z m674 -15 c3 -5 -1 -12 -10 -15 -22
-9 -24 -8 -24 9 0 16 25 21 34 6z m-679 -22 c11 -16 -2 -22 -32 -14 -26 7 -26
8 -8 15 28 12 33 12 40 -1z m665 -19 c0 -5 -4 -10 -10 -10 -5 0 -10 5 -10 10
0 6 5 10 10 10 6 0 10 -4 10 -10z m-10 -35 c0 -8 -4 -15 -9 -15 -13 0 -22 16
-14 24 11 11 23 6 23 -9z m-640 -25 c0 -5 -4 -10 -10 -10 -5 0 -10 5 -10 10 0
6 5 10 10 10 6 0 10 -4 10 -10z m620 -10 c0 -5 -2 -10 -4 -10 -3 0 -8 5 -11
10 -3 6 -1 10 4 10 6 0 11 -4 11 -10z m-986 -19 c8 -13 -27 -40 -62 -47 -42
-9 -42 10 1 36 35 22 53 25 61 11z m381 -1 c-3 -5 -11 -10 -16 -10 -6 0 -7 5
-4 10 3 6 11 10 16 10 6 0 7 -4 4 -10z m625 -14 c0 -3 -4 -8 -10 -11 -5 -3
-10 -1 -10 4 0 6 5 11 10 11 6 0 10 -2 10 -4z m-635 -26 c3 -5 -1 -10 -10 -10
-9 0 -13 5 -10 10 3 6 8 10 10 10 2 0 7 -4 10 -10z m622 -66 c-9 -9 -28 6 -21
18 4 6 10 6 17 -1 6 -6 8 -13 4 -17z m-611 -21 c-10 -10 -19 5 -10 18 6 11 8
11 12 0 2 -7 1 -15 -2 -18z m-1719 -87 c-3 -8 -11 -33 -17 -56 -16 -61 -48
-130 -60 -130 -21 0 -9 59 26 129 19 39 40 71 46 71 5 0 8 -6 5 -14z m1863
-86 c0 -5 -4 -10 -10 -10 -5 0 -10 5 -10 10 0 6 5 10 10 10 6 0 10 -4 10 -10z"/>
<path d="M5930 1574 c0 -9 -6 -14 -13 -11 -8 3 -20 1 -28 -4 -12 -7 -12 -9 0
-9 11 0 11 -3 1 -15 -8 -9 -8 -15 -2 -15 6 0 17 -3 26 -6 11 -4 16 -1 16 10 0
9 4 16 9 16 5 0 9 11 9 25 0 14 -4 25 -9 25 -5 0 -9 -7 -9 -16z"/>
<path d="M5804 1488 c-70 -75 -80 -95 -18 -35 33 31 65 57 72 57 7 0 10 5 7
10 -10 17 -19 12 -61 -32z"/>
<path d="M5448 1433 c7 -3 16 -2 19 1 4 3 -2 6 -13 5 -11 0 -14 -3 -6 -6z"/>
<path d="M5740 1136 c0 -8 4 -17 9 -20 5 -4 7 3 4 14 -6 23 -13 26 -13 6z"/>
<path d="M5626 1123 c-6 -14 -5 -15 5 -6 7 7 10 15 7 18 -3 3 -9 -2 -12 -12z"/>
<path d="M4550 921 c0 -6 7 -40 16 -78 9 -40 16 -112 16 -173 -1 -249 -77
-387 -263 -479 -146 -72 -290 -88 -469 -51 -224 46 -375 169 -541 442 -41 68
-123 248 -143 316 -6 17 -15 22 -41 22 l-35 0 6 -42 c3 -24 16 -172 29 -331
13 -158 29 -295 34 -306 24 -44 259 -139 441 -178 119 -25 459 -26 576 -1 386
84 633 295 713 610 10 40 22 115 26 166 l7 92 -186 0 c-109 0 -186 -4 -186 -9z"/>
</g>
</svg>
